<?xml version="1.0" encoding="UTF-8" standalone="no"?>
<!-- Created with Inkscape (http://www.inkscape.org/) -->

<svg
   xmlns:dc="http://purl.org/dc/elements/1.1/"
   xmlns:cc="http://creativecommons.org/ns#"
   xmlns:rdf="http://www.w3.org/1999/02/22-rdf-syntax-ns#"
   xmlns:svg="http://www.w3.org/2000/svg"
   xmlns="http://www.w3.org/2000/svg"
   xmlns:sodipodi="http://sodipodi.sourceforge.net/DTD/sodipodi-0.dtd"
   xmlns:inkscape="http://www.inkscape.org/namespaces/inkscape"
   id="svg2"
   version="1.1"
   inkscape:version="0.48.4 r9939"
   width="673.75"
   height="236.25"
   xml:space="preserve"
   sodipodi:docname="doublet-layer.svg"><metadata
     id="metadata8"><rdf:RDF><cc:Work
         rdf:about=""><dc:format>image/svg+xml</dc:format><dc:type
           rdf:resource="http://purl.org/dc/dcmitype/StillImage" /><dc:title></dc:title></cc:Work></rdf:RDF></metadata><defs
     id="defs6"><inkscape:perspective
       sodipodi:type="inkscape:persp3d"
       inkscape:vp_x="0 : 118.125 : 1"
       inkscape:vp_y="0 : 1000 : 0"
       inkscape:vp_z="673.75 : 118.125 : 1"
       inkscape:persp3d-origin="336.875 : 78.75 : 1"
       id="perspective100" /><clipPath
       clipPathUnits="userSpaceOnUse"
       id="clipPath18"><path
         d="m 0,188.656 538.582,0 L 538.582,0 0,0 0,188.656 z"
         id="path20" /></clipPath><clipPath
       clipPathUnits="userSpaceOnUse"
       id="clipPath28"><path
         d="M 0,0 539,0 539,188 0,188 0,0 z"
         id="path30" /></clipPath><clipPath
       clipPathUnits="userSpaceOnUse"
       id="clipPath38"><path
         d="M 0,188 539,188 539,0 0,0 0,188 z"
         id="path40" /></clipPath><clipPath
       clipPathUnits="userSpaceOnUse"
       id="clipPath48"><path
         d="M 0,0 539,0 539,188 0,188 0,0 z"
         id="path50" /></clipPath></defs><sodipodi:namedview
     pagecolor="#ffffff"
     bordercolor="#666666"
     borderopacity="1"
     objecttolerance="10"
     gridtolerance="10"
     guidetolerance="10"
     inkscape:pageopacity="0"
     inkscape:pageshadow="2"
     inkscape:window-width="1680"
     inkscape:window-height="949"
     id="namedview4"
     showgrid="false"
     showguides="true"
     inkscape:guide-bbox="true"
     inkscape:zoom="2.8630611"
     inkscape:cx="88.03812"
     inkscape:cy="104.05952"
     inkscape:window-x="0"
     inkscape:window-y="28"
     inkscape:window-maximized="1"
     inkscape:current-layer="g10" /><g
     id="g10"
     inkscape:groupmode="layer"
     inkscape:label="doublet-layer"
     transform="matrix(1.25,0,0,-1.25,0,236.25)"><g
       id="g12" /><g
       id="g32" /><text
       id="text68"
       transform="scale(1,-1)"
       x="6.8352656"
       y="-167.15387"
       style="font-family:Times New Roman;-inkscape-font-specification:Times New Roman"><tspan
         id="tspan70"
         sodipodi:role="line"
         y="-167.15387"
         x="6.8352656"
         style="font-size:13.44830036px;font-variant:normal;font-weight:bold;writing-mode:lr-tb;fill:#231f20;fill-opacity:1;fill-rule:nonzero;stroke:none;font-family:Times New Roman;-inkscape-font-specification:Times New Roman">(a)</tspan></text>
<text
       id="text64"
       transform="scale(1,-1)"
       x="95.676682"
       y="-25.753386"><tspan
         id="tspan66"
         y="-25.753386"
         x="95.676682"
         style="font-size:13.44830036px;font-style:italic;font-variant:normal;font-weight:bold;writing-mode:lr-tb;fill:#898788;fill-opacity:1;fill-rule:nonzero;stroke:none;font-family:Times New Roman;-inkscape-font-specification:Times New Roman">U</tspan></text>
<text
       id="text78"
       transform="scale(1,-1)"
       x="145.20377"
       y="-113.84248"><tspan
         id="tspan80"
         y="-113.84248"
         x="145.20377"
         style="font-size:13.44830036px;font-style:italic;font-variant:normal;font-weight:bold;writing-mode:lr-tb;fill:#00a650;fill-opacity:1;fill-rule:nonzero;stroke:none;font-family:Times New Roman;-inkscape-font-specification:Times New Roman">W</tspan></text>
<text
       id="text88"
       transform="scale(1,-1)"
       x="29.966566"
       y="-112.95191"><tspan
         id="tspan90"
         y="-112.95191"
         x="29.966566"
         style="font-size:13.44830036px;font-style:italic;font-variant:normal;font-weight:bold;writing-mode:lr-tb;fill:#127bca;fill-opacity:1;fill-rule:nonzero;stroke:none;font-family:Times New Roman;-inkscape-font-specification:Times New Roman">V</tspan></text>
<path
       inkscape:connector-curvature="0"
       id="path56"
       style="fill:none;stroke:#231f20;stroke-width:0.96059602;stroke-linecap:butt;stroke-linejoin:miter;stroke-miterlimit:4;stroke-opacity:1;stroke-dasharray:none"
       d="m 128.55718,72.77566 c -11.191,-19.59 -36.141,-26.39399 -55.72599,-15.203 -19.586,11.187 -26.391,36.137005 -15.204,55.72601 11.192,19.586 36.14099,26.391 55.72699,15.2 19.586,-11.188 26.395,-36.141005 15.203,-55.72301 z" /><g
       id="g3303"><g
         id="g3299"><path
           inkscape:connector-curvature="0"
           id="path60"
           style="fill:#a7a5a6;fill-opacity:1;fill-rule:nonzero;stroke:none"
           d="m 91.565943,50.388958 c 0.524774,-1.40571 1.417733,-3.15209 2.365784,-4.23433 l -2.358901,0.85341 -2.35891,-0.86029 c 0.941151,1.08224 1.834127,2.8355 2.352027,4.24121" /><path
           inkscape:connector-curvature="0"
           id="path58"
           style="fill:none;stroke:#a7a5a6;stroke-width:0.96059602;stroke-linecap:butt;stroke-linejoin:miter;stroke-miterlimit:4;stroke-opacity:1;stroke-dasharray:none"
           d="m 91.592458,17.934798 -0.043,30.16399" /></g><path
         d="m 59.06119,93.470665 c 0.23,18.606005 15.39099,33.610005 34.04699,33.602005 18.801,-0.008 34.031,-15.254 34.023,-34.055005 l -0.035,-75.754005 -68.06999,0.032 0.035,76.175005 z"
         style="fill:none;stroke:#a7a5a6;stroke-width:0.96059602;stroke-linecap:butt;stroke-linejoin:miter;stroke-miterlimit:4;stroke-opacity:1;stroke-dasharray:none"
         id="path62"
         inkscape:connector-curvature="0" /></g><g
       id="g3291"><path
         d="M 109.77237,63.527163 C 93.521388,54.465639 72.958789,60.140183 63.674697,76.325674 54.324284,92.630284 59.96069,113.43082 76.2673,122.7847 l 65.71153,37.68969 33.86842,-59.04817 -66.07488,-37.899057 z"
         style="fill:none;stroke:#00a650;stroke-width:0.96059602;stroke-linecap:butt;stroke-linejoin:miter;stroke-miterlimit:4;stroke-opacity:1;stroke-dasharray:none"
         id="path72"
         inkscape:connector-curvature="0" /><g
         transform="matrix(0.5,0.8660254,-0.8660254,0.5,232.11863,34.526024)"
         id="g3170"><path
           inkscape:connector-curvature="0"
           id="path74"
           style="fill:none;stroke:#00a650;stroke-width:1.36000001;stroke-linecap:butt;stroke-linejoin:miter;stroke-miterlimit:4;stroke-opacity:1;stroke-dasharray:none"
           d="m 20.17219,128.40067 26.06999,-15.164" /><path
           inkscape:connector-curvature="0"
           id="path76"
           style="fill:#00a650;fill-opacity:1;fill-rule:nonzero;stroke:none"
           d="m 17.72871,129.72041 c 1.625,-0.27347 3.76981,-0.38873 5.31571,-0.0881 l -2.10188,-1.76739 -0.48591,-2.70079 c -0.50176,1.48261 -1.67698,3.28389 -2.72792,4.55632" /></g></g><g
       id="g3163"
       transform="matrix(0.5,-0.8660254,0.8660254,0.5,-129.45691,180.86689)"><path
         d="m 149.72192,129.20983 c -1.10302,-1.32363 -2.32464,-3.21418 -2.86311,-4.78213 l -0.51,2.83702 -2.19655,1.8526 c 1.62251,-0.31549 3.87362,-0.19451 5.56966,0.0925"
         style="fill:#127bca;fill-opacity:1;fill-rule:nonzero;stroke:none"
         id="path84"
         inkscape:connector-curvature="0" /></g><g
       id="g3283"><path
         inkscape:connector-curvature="0"
         id="path82"
         style="fill:none;stroke:#127bca;stroke-width:0.96059601999999999;stroke-linecap:butt;stroke-linejoin:miter;stroke-miterlimit:4;stroke-opacity:1;stroke-dasharray:none"
         d="m 121.70318,113.09167 26.168,15"
         transform="matrix(0.5,-0.86602536,0.86602536,0.5,-129.45691,180.86689)" /><path
         d="M 110.82511,122.40231 C 126.77522,112.8299 132.09793,92.172707 122.68871,76.063945 113.20874,59.82772 92.362938,54.355705 76.133051,63.834695 l -65.416625,38.202915 34.329288,58.78193 65.779396,-38.41723 z"
         style="fill:none;stroke:#1180ce;stroke-width:0.96059602;stroke-linecap:butt;stroke-linejoin:miter;stroke-miterlimit:4;stroke-opacity:1;stroke-dasharray:none"
         id="path86"
         inkscape:connector-curvature="0" /></g><path
       inkscape:connector-curvature="0"
       id="path92"
       style="fill:none;stroke:#ed1c24;stroke-width:0.96059602;stroke-linecap:butt;stroke-linejoin:miter;stroke-miterlimit:4;stroke-opacity:1;stroke-dasharray:none"
       d="m 93.09218,127.07267 c 18.801,0 34.039,-15.238 34.039,-34.039005 0,-18.797005 -15.238,-34.035005 -34.039,-34.035005 -18.79699,0 -34.035,15.238 -34.035,34.035005 0,18.801005 15.238,34.039005 34.035,34.039005 z" /><path
       inkscape:connector-curvature="0"
       id="path94"
       style="fill:#fabfac;fill-opacity:1;fill-rule:nonzero;stroke:none"
       d="m 286.39869,96.43916 c 7.52,0 13.614,-6.092995 13.614,-13.612995 0,-7.519 -6.094,-13.613 -13.614,-13.613 -7.519,0 -13.617,6.094 -13.617,13.613 0,7.52 6.098,13.612995 13.617,13.612995" /><path
       inkscape:connector-curvature="0"
       id="path96"
       style="fill:none;stroke:#bf2329;stroke-width:0.96059602;stroke-linecap:butt;stroke-linejoin:miter;stroke-miterlimit:4;stroke-opacity:1;stroke-dasharray:none"
       d="m 286.39869,96.43916 c 7.52,0 13.614,-6.092995 13.614,-13.612995 0,-7.519 -6.094,-13.613 -13.614,-13.613 -7.519,0 -13.617,6.094 -13.617,13.613 0,7.52 6.098,13.612995 13.617,13.612995 z" /><path
       inkscape:connector-curvature="0"
       id="path98"
       style="fill:#fabfac;fill-opacity:1;fill-rule:nonzero;stroke:none"
       d="m 307.34069,114.84617 c 7.515,0 13.613,-6.09801 13.613,-13.61701 0,-7.51999 -6.098,-13.613995 -13.613,-13.613995 -7.52,0 -13.614,6.093995 -13.614,13.613995 0,7.519 6.094,13.61701 13.614,13.61701" /><path
       inkscape:connector-curvature="0"
       id="path100"
       style="fill:none;stroke:#bf2329;stroke-width:0.96059602;stroke-linecap:butt;stroke-linejoin:miter;stroke-miterlimit:4;stroke-opacity:1;stroke-dasharray:none"
       d="m 307.34069,114.84617 c 7.515,0 13.613,-6.09801 13.613,-13.61701 0,-7.51999 -6.098,-13.613995 -13.613,-13.613995 -7.52,0 -13.614,6.093995 -13.614,13.613995 0,7.519 6.094,13.61701 13.614,13.61701 z" /><path
       inkscape:connector-curvature="0"
       id="path102"
       style="fill:#fabfac;fill-opacity:1;fill-rule:nonzero;stroke:none"
       d="m 327.71569,96.44316 c 7.519,0 13.617,-6.096995 13.617,-13.616995 0,-7.519 -6.098,-13.613 -13.617,-13.613 -7.52,0 -13.614,6.094 -13.614,13.613 0,7.52 6.094,13.616995 13.614,13.616995" /><path
       inkscape:connector-curvature="0"
       id="path104"
       style="fill:none;stroke:#bf2329;stroke-width:0.96059602;stroke-linecap:butt;stroke-linejoin:miter;stroke-miterlimit:4;stroke-opacity:1;stroke-dasharray:none"
       d="m 327.71569,96.44316 c 7.519,0 13.617,-6.096995 13.617,-13.616995 0,-7.519 -6.098,-13.613 -13.617,-13.613 -7.52,0 -13.614,6.094 -13.614,13.613 0,7.52 6.094,13.616995 13.614,13.616995 z" /><path
       inkscape:connector-curvature="0"
       id="path106"
       style="fill:#fabfac;fill-opacity:1;fill-rule:nonzero;stroke:none"
       d="m 348.65669,114.84617 c 7.52,0 13.617,-6.09801 13.617,-13.61701 0,-7.516 -6.097,-13.613995 -13.617,-13.613995 -7.516,0 -13.613,6.097995 -13.613,13.613995 0,7.519 6.097,13.61701 13.613,13.61701" /><path
       inkscape:connector-curvature="0"
       id="path108"
       style="fill:none;stroke:#bf2329;stroke-width:0.96059602;stroke-linecap:butt;stroke-linejoin:miter;stroke-miterlimit:4;stroke-opacity:1;stroke-dasharray:none"
       d="m 348.65669,114.84617 c 7.52,0 13.617,-6.09801 13.617,-13.61701 0,-7.516 -6.097,-13.613995 -13.617,-13.613995 -7.516,0 -13.613,6.097995 -13.613,13.613995 0,7.519 6.097,13.61701 13.613,13.61701 z" /><path
       inkscape:connector-curvature="0"
       id="path110"
       style="fill:#fabfac;fill-opacity:1;fill-rule:nonzero;stroke:none"
       d="m 369.37969,96.43916 c 7.519,0 13.613,-6.092995 13.613,-13.612995 0,-7.519 -6.094,-13.613 -13.613,-13.613 -7.52,0 -13.617,6.094 -13.617,13.613 0,7.52 6.097,13.612995 13.617,13.612995" /><path
       inkscape:connector-curvature="0"
       id="path112"
       style="fill:none;stroke:#bf2329;stroke-width:0.96059602;stroke-linecap:butt;stroke-linejoin:miter;stroke-miterlimit:4;stroke-opacity:1;stroke-dasharray:none"
       d="m 369.37969,96.43916 c 7.519,0 13.613,-6.092995 13.613,-13.612995 0,-7.519 -6.094,-13.613 -13.613,-13.613 -7.52,0 -13.617,6.094 -13.617,13.613 0,7.52 6.097,13.612995 13.617,13.612995 z" /><path
       inkscape:connector-curvature="0"
       id="path114"
       style="fill:#fabfac;fill-opacity:1;fill-rule:nonzero;stroke:none"
       d="m 390.32469,114.84617 c 7.516,0 13.609,-6.09801 13.609,-13.61701 0,-7.51999 -6.093,-13.613995 -13.609,-13.613995 -7.523,0 -13.617,6.093995 -13.617,13.613995 0,7.519 6.094,13.61701 13.617,13.61701" /><path
       inkscape:connector-curvature="0"
       id="path116"
       style="fill:none;stroke:#bf2329;stroke-width:0.96059602;stroke-linecap:butt;stroke-linejoin:miter;stroke-miterlimit:4;stroke-opacity:1;stroke-dasharray:none"
       d="m 390.32469,114.84617 c 7.516,0 13.609,-6.09801 13.609,-13.61701 0,-7.51999 -6.093,-13.613995 -13.609,-13.613995 -7.523,0 -13.617,6.093995 -13.617,13.613995 0,7.519 6.094,13.61701 13.617,13.61701 z" /><path
       inkscape:connector-curvature="0"
       id="path118"
       style="fill:#fabfac;fill-opacity:1;fill-rule:nonzero;stroke:none"
       d="m 410.69569,96.44316 c 7.524,0 13.617,-6.096995 13.617,-13.616995 0,-7.519 -6.093,-13.613 -13.617,-13.613 -7.516,0 -13.613,6.094 -13.613,13.613 0,7.52 6.097,13.616995 13.613,13.616995" /><path
       inkscape:connector-curvature="0"
       id="path120"
       style="fill:none;stroke:#bf2329;stroke-width:0.96059602;stroke-linecap:butt;stroke-linejoin:miter;stroke-miterlimit:4;stroke-opacity:1;stroke-dasharray:none"
       d="m 410.69569,96.44316 c 7.524,0 13.617,-6.096995 13.617,-13.616995 0,-7.519 -6.093,-13.613 -13.617,-13.613 -7.516,0 -13.613,6.094 -13.613,13.613 0,7.52 6.097,13.616995 13.613,13.616995 z" /><path
       inkscape:connector-curvature="0"
       id="path122"
       style="fill:#bdbcbc;fill-opacity:1;fill-rule:nonzero;stroke:none"
       d="m 203.81269,96.43916 c 7.516,0 13.614,-6.092995 13.614,-13.612995 0,-7.519 -6.098,-13.613 -13.614,-13.613 -7.519,0 -13.617,6.094 -13.617,13.613 0,7.52 6.098,13.612995 13.617,13.612995" /><path
       inkscape:connector-curvature="0"
       id="path124"
       style="fill:none;stroke:#231f20;stroke-width:0.96059602;stroke-linecap:butt;stroke-linejoin:miter;stroke-miterlimit:4;stroke-opacity:1;stroke-dasharray:none"
       d="m 203.81269,96.43916 c 7.516,0 13.614,-6.092995 13.614,-13.612995 0,-7.519 -6.098,-13.613 -13.614,-13.613 -7.519,0 -13.617,6.094 -13.617,13.613 0,7.52 6.098,13.612995 13.617,13.612995 z" /><path
       inkscape:connector-curvature="0"
       id="path126"
       style="fill:#bdbcbc;fill-opacity:1;fill-rule:nonzero;stroke:none"
       d="m 224.75469,114.84617 c 7.519,0 13.613,-6.09801 13.613,-13.61701 0,-7.51999 -6.094,-13.613995 -13.613,-13.613995 -7.52,0 -13.617,6.093995 -13.617,13.613995 0,7.519 6.097,13.61701 13.617,13.61701" /><path
       inkscape:connector-curvature="0"
       id="path128"
       style="fill:none;stroke:#231f20;stroke-width:0.96059602;stroke-linecap:butt;stroke-linejoin:miter;stroke-miterlimit:4;stroke-opacity:1;stroke-dasharray:none"
       d="m 224.75469,114.84617 c 7.519,0 13.613,-6.09801 13.613,-13.61701 0,-7.51999 -6.094,-13.613995 -13.613,-13.613995 -7.52,0 -13.617,6.093995 -13.617,13.613995 0,7.519 6.097,13.61701 13.617,13.61701 z" /><path
       inkscape:connector-curvature="0"
       id="path130"
       style="fill:#bdbcbc;fill-opacity:1;fill-rule:nonzero;stroke:none"
       d="m 245.13369,96.43916 c 7.515,0 13.613,-6.092995 13.613,-13.612995 0,-7.519 -6.098,-13.613 -13.613,-13.613 -7.524,0 -13.618,6.094 -13.618,13.613 0,7.52 6.094,13.612995 13.618,13.612995" /><path
       inkscape:connector-curvature="0"
       id="path132"
       style="fill:none;stroke:#231f20;stroke-width:0.96059602;stroke-linecap:butt;stroke-linejoin:miter;stroke-miterlimit:4;stroke-opacity:1;stroke-dasharray:none"
       d="m 245.13369,96.43916 c 7.515,0 13.613,-6.092995 13.613,-13.612995 0,-7.519 -6.098,-13.613 -13.613,-13.613 -7.524,0 -13.618,6.094 -13.618,13.613 0,7.52 6.094,13.612995 13.618,13.612995 z" /><path
       inkscape:connector-curvature="0"
       id="path134"
       style="fill:#bdbcbc;fill-opacity:1;fill-rule:nonzero;stroke:none"
       d="m 266.07469,114.84617 c 7.516,0 13.613,-6.09801 13.613,-13.61701 0,-7.516 -6.097,-13.613995 -13.613,-13.613995 -7.519,0 -13.617,6.097995 -13.617,13.613995 0,7.519 6.098,13.61701 13.617,13.61701" /><path
       inkscape:connector-curvature="0"
       id="path136"
       style="fill:none;stroke:#231f20;stroke-width:0.96059602;stroke-linecap:butt;stroke-linejoin:miter;stroke-miterlimit:4;stroke-opacity:1;stroke-dasharray:none"
       d="m 266.07469,114.84617 c 7.516,0 13.613,-6.09801 13.613,-13.61701 0,-7.516 -6.097,-13.613995 -13.613,-13.613995 -7.519,0 -13.617,6.097995 -13.617,13.613995 0,7.519 6.098,13.61701 13.617,13.61701 z" /><path
       inkscape:connector-curvature="0"
       id="path138"
       style="fill:#bdbcbc;fill-opacity:1;fill-rule:nonzero;stroke:none"
       d="m 431.64069,114.84617 c 7.52,0 13.614,-6.09801 13.614,-13.61701 0,-7.516 -6.094,-13.613995 -13.614,-13.613995 -7.519,0 -13.613,6.097995 -13.613,13.613995 0,7.519 6.094,13.61701 13.613,13.61701" /><path
       inkscape:connector-curvature="0"
       id="path140"
       style="fill:none;stroke:#231f20;stroke-width:0.96059602;stroke-linecap:butt;stroke-linejoin:miter;stroke-miterlimit:4;stroke-opacity:1;stroke-dasharray:none"
       d="m 431.64069,114.84617 c 7.52,0 13.614,-6.09801 13.614,-13.61701 0,-7.516 -6.094,-13.613995 -13.614,-13.613995 -7.519,0 -13.613,6.097995 -13.613,13.613995 0,7.519 6.094,13.61701 13.613,13.61701 z" /><path
       inkscape:connector-curvature="0"
       id="path142"
       style="fill:#bdbcbc;fill-opacity:1;fill-rule:nonzero;stroke:none"
       d="m 451.96569,96.43916 c 7.519,0 13.613,-6.092995 13.613,-13.612995 0,-7.519 -6.094,-13.613 -13.613,-13.613 -7.52,0 -13.614,6.094 -13.614,13.613 0,7.52 6.094,13.612995 13.614,13.612995" /><path
       inkscape:connector-curvature="0"
       id="path144"
       style="fill:none;stroke:#231f20;stroke-width:0.96059602;stroke-linecap:butt;stroke-linejoin:miter;stroke-miterlimit:4;stroke-opacity:1;stroke-dasharray:none"
       d="m 451.96569,96.43916 c 7.519,0 13.613,-6.092995 13.613,-13.612995 0,-7.519 -6.094,-13.613 -13.613,-13.613 -7.52,0 -13.614,6.094 -13.614,13.613 0,7.52 6.094,13.612995 13.614,13.612995 z" /><path
       inkscape:connector-curvature="0"
       id="path146"
       style="fill:#bdbcbc;fill-opacity:1;fill-rule:nonzero;stroke:none"
       d="m 472.90669,114.84617 c 7.52,0 13.613,-6.09801 13.613,-13.61701 0,-7.51999 -6.093,-13.613995 -13.613,-13.613995 -7.519,0 -13.613,6.093995 -13.613,13.613995 0,7.519 6.094,13.61701 13.613,13.61701" /><path
       inkscape:connector-curvature="0"
       id="path148"
       style="fill:none;stroke:#231f20;stroke-width:0.96059602;stroke-linecap:butt;stroke-linejoin:miter;stroke-miterlimit:4;stroke-opacity:1;stroke-dasharray:none"
       d="m 472.90669,114.84617 c 7.52,0 13.613,-6.09801 13.613,-13.61701 0,-7.51999 -6.093,-13.613995 -13.613,-13.613995 -7.519,0 -13.613,6.093995 -13.613,13.613995 0,7.519 6.094,13.61701 13.613,13.61701 z" /><path
       inkscape:connector-curvature="0"
       id="path150"
       style="fill:none;stroke:#231f20;stroke-width:0.96059602;stroke-linecap:butt;stroke-linejoin:miter;stroke-miterlimit:4;stroke-opacity:1;stroke-dasharray:5.76358, 5.76358;stroke-dashoffset:0"
       d="m 431.64069,155.19317 0,-112.156005" /><path
       inkscape:connector-curvature="0"
       id="path152"
       style="fill:none;stroke:#231f20;stroke-width:0.96059602;stroke-linecap:butt;stroke-linejoin:miter;stroke-miterlimit:4;stroke-opacity:1;stroke-dasharray:5.76358, 5.76358;stroke-dashoffset:0"
       d="m 472.90669,129.56116 0,-86.304995" /><path
       inkscape:connector-curvature="0"
       id="path154"
       style="fill:none;stroke:#231f20;stroke-width:0.96059602;stroke-linecap:butt;stroke-linejoin:miter;stroke-miterlimit:4;stroke-opacity:1;stroke-dasharray:5.76358, 5.76358;stroke-dashoffset:0"
       d="m 451.96569,155.41216 0,-112.155995" /><path
       inkscape:connector-curvature="0"
       id="path156"
       style="fill:none;stroke:#231f20;stroke-width:0.96059602;stroke-linecap:butt;stroke-linejoin:miter;stroke-miterlimit:4;stroke-opacity:1;stroke-dasharray:5.76358, 5.76358;stroke-dashoffset:0"
       d="m 401.97269,82.826165 94.668,0" /><path
       inkscape:connector-curvature="0"
       id="path158"
       style="fill:none;stroke:#231f20;stroke-width:0.96059602;stroke-linecap:butt;stroke-linejoin:miter;stroke-miterlimit:4;stroke-opacity:1;stroke-dasharray:5.76358, 5.76358;stroke-dashoffset:0"
       d="m 401.97269,114.84617 112.161,0" /><path
       inkscape:connector-curvature="0"
       id="path160"
       style="fill:none;stroke:#231f20;stroke-width:0.96059602;stroke-linecap:butt;stroke-linejoin:miter;stroke-miterlimit:4;stroke-opacity:1;stroke-dasharray:5.76358, 5.76358;stroke-dashoffset:0"
       d="m 401.97269,101.18617 95.262,0" /><path
       inkscape:connector-curvature="0"
       id="path162"
       style="fill:none;stroke:#231f20;stroke-width:0.96059602;stroke-linecap:butt;stroke-linejoin:miter;stroke-miterlimit:4;stroke-opacity:1;stroke-dasharray:5.76358, 5.76358;stroke-dashoffset:0"
       d="m 401.97269,69.213165 112.161,0" /><path
       inkscape:connector-curvature="0"
       id="path164"
       style="fill:none;stroke:#231f20;stroke-width:0.96059602;stroke-linecap:butt;stroke-linejoin:miter;stroke-miterlimit:4;stroke-opacity:1;stroke-dasharray:5.76358, 5.76358;stroke-dashoffset:0"
       d="m 456.57069,153.00217 5.934,0" /><path
       inkscape:connector-curvature="0"
       id="path166"
       style="fill:#231f20;fill-opacity:1;fill-rule:nonzero;stroke:none"
       d="m 454.25469,153.00217 c 1.086,0.406 2.441,1.098 3.281,1.828 l -0.66,-1.828 0.66,-1.82801 c -0.84,0.73 -2.195,1.422 -3.281,1.82801" /><path
       inkscape:connector-curvature="0"
       id="path168"
       style="fill:none;stroke:#231f20;stroke-width:0.96059602;stroke-linecap:butt;stroke-linejoin:miter;stroke-miterlimit:4;stroke-opacity:1;stroke-dasharray:none"
       d="m 427.74269,153.54916 -14.352,0" /><path
       inkscape:connector-curvature="0"
       id="path170"
       style="fill:#231f20;fill-opacity:1;fill-rule:nonzero;stroke:none"
       d="m 430.05869,153.54916 c -1.086,-0.40199 -2.441,-1.09399 -3.281,-1.824 l 0.66,1.824 -0.66,1.82801 c 0.84,-0.73 2.195,-1.422 3.281,-1.82801" /><text
       id="text172"
       transform="scale(1,-1)"
       x="382.9837"
       y="-149.73813"
       style="font-family:Times New Roman;-inkscape-font-specification:Times New Roman"><tspan
         id="tspan174"
         sodipodi:role="line"
         y="-149.73813"
         x="382.9837"
         style="font-size:11.52719975px;font-variant:normal;font-weight:bold;writing-mode:lr-tb;fill:#231f20;fill-opacity:1;fill-rule:nonzero;stroke:none;font-family:Times New Roman;-inkscape-font-specification:Times New Roman">213.5</tspan></text>
<path
       inkscape:connector-curvature="0"
       id="path176"
       style="fill:none;stroke:#231f20;stroke-width:0.96059602;stroke-linecap:butt;stroke-linejoin:miter;stroke-miterlimit:4;stroke-opacity:1;stroke-dasharray:5.76358, 5.76358;stroke-dashoffset:0"
       d="m 508.80869,64.791165 0,-5.934" /><path
       inkscape:connector-curvature="0"
       id="path178"
       style="fill:#231f20;fill-opacity:1;fill-rule:nonzero;stroke:none"
       d="m 508.80869,67.111165 c 0.403,-1.09 1.094,-2.445 1.825,-3.285 l -1.825,0.664 -1.832,-0.664 c 0.735,0.84 1.426,2.195 1.832,3.285" /><path
       inkscape:connector-curvature="0"
       id="path180"
       style="fill:none;stroke:#231f20;stroke-width:0.96059602;stroke-linecap:butt;stroke-linejoin:miter;stroke-miterlimit:4;stroke-opacity:1;stroke-dasharray:none"
       d="m 508.50869,117.95516 0,14.352" /><path
       inkscape:connector-curvature="0"
       id="path182"
       style="fill:#231f20;fill-opacity:1;fill-rule:nonzero;stroke:none"
       d="m 508.50869,115.63516 c -0.403,1.09 -1.094,2.445 -1.825,3.285 l 1.825,-0.66 1.828,0.66 c -0.731,-0.84 -1.426,-2.195 -1.828,-3.285" /><text
       id="text184"
       transform="scale(1,-1)"
       x="506.6987"
       y="-135.01613"
       style="font-family:Times New Roman;-inkscape-font-specification:Times New Roman"><tspan
         id="tspan186"
         sodipodi:role="line"
         y="-135.01613"
         x="506.6987"
         style="font-size:11.52719975px;font-variant:normal;font-weight:bold;writing-mode:lr-tb;fill:#231f20;fill-opacity:1;fill-rule:nonzero;stroke:none;font-family:Times New Roman;-inkscape-font-specification:Times New Roman">627.3</tspan></text>
<path
       inkscape:connector-curvature="0"
       id="path188"
       style="fill:none;stroke:#231f20;stroke-width:0.96059602;stroke-linecap:butt;stroke-linejoin:miter;stroke-miterlimit:4;stroke-opacity:1;stroke-dasharray:5.76358, 5.76358;stroke-dashoffset:0"
       d="m 495.45369,105.00217 0,5.93699" /><path
       inkscape:connector-curvature="0"
       id="path190"
       style="fill:#231f20;fill-opacity:1;fill-rule:nonzero;stroke:none"
       d="m 495.45369,102.68617 c -0.406,1.089 -1.098,2.445 -1.828,3.281 l 1.828,-0.66 1.824,0.66 c -0.73,-0.836 -1.422,-2.192 -1.824,-3.281" /><path
       inkscape:connector-curvature="0"
       id="path192"
       style="fill:none;stroke:#231f20;stroke-width:0.96059602;stroke-linecap:butt;stroke-linejoin:miter;stroke-miterlimit:4;stroke-opacity:1;stroke-dasharray:none"
       d="m 495.45369,78.252165 0,-33.27" /><path
       inkscape:connector-curvature="0"
       id="path194"
       style="fill:#231f20;fill-opacity:1;fill-rule:nonzero;stroke:none"
       d="m 495.45369,80.572165 c 0.406,-1.09 1.094,-2.445 1.824,-3.285 l -1.824,0.66 -1.828,-0.66 c 0.73,0.84 1.422,2.195 1.828,3.285" /><text
       id="text196"
       transform="scale(1,-1)"
       x="484.14368"
       y="-34.714275"
       style="font-family:Times New Roman;-inkscape-font-specification:Times New Roman"><tspan
         id="tspan198"
         sodipodi:role="line"
         x="484.14368"
         style="font-size:11.52719975px;font-variant:normal;font-weight:bold;writing-mode:lr-tb;fill:#231f20;fill-opacity:1;fill-rule:nonzero;stroke:none;font-family:Times New Roman;-inkscape-font-specification:Times New Roman"
         y="-34.714275">277.3</tspan></text>
<path
       inkscape:connector-curvature="0"
       id="path200"
       style="fill:#231f20;fill-opacity:1;fill-rule:nonzero;stroke:#231f20;stroke-width:0.96059602;stroke-linecap:butt;stroke-linejoin:miter;stroke-miterlimit:4;stroke-opacity:1;stroke-dasharray:none"
       d="m 472.90669,101.18617 -20.941,-18.360005" /><path
       inkscape:connector-curvature="0"
       id="path202"
       style="fill:#231f20;fill-opacity:1;fill-rule:nonzero;stroke:#231f20;stroke-width:0.48029801;stroke-linecap:butt;stroke-linejoin:miter;stroke-miterlimit:4;stroke-opacity:1;stroke-dasharray:none"
       d="m 451.96569,82.826165 -35.012,-35.012" /><text
       id="text204"
       transform="scale(1,-1)"
       x="396.60269"
       y="-41.835373"
       style="font-family:Times New Roman;-inkscape-font-specification:Times New Roman"><tspan
         id="tspan206"
         sodipodi:role="line"
         y="-41.835373"
         x="396.60269"
         style="font-size:11.52719975px;font-variant:normal;font-weight:bold;writing-mode:lr-tb;fill:#231f20;fill-opacity:1;fill-rule:nonzero;stroke:none;font-family:Times New Roman;-inkscape-font-specification:Times New Roman">350</tspan></text>
<text
       id="text208"
       transform="scale(1,-1)"
       x="224.4007"
       y="-36.223263"
       style="font-family:Times New Roman;-inkscape-font-specification:Times New Roman"><tspan
         id="tspan210"
         sodipodi:role="line"
         y="-36.223263"
         x="224.4007"
         style="font-size:13.44830036px;font-variant:normal;font-weight:bold;writing-mode:lr-tb;fill:#231f20;fill-opacity:1;fill-rule:nonzero;stroke:none;font-family:Times New Roman;-inkscape-font-specification:Times New Roman">(b)</tspan></text>
<path
       inkscape:connector-curvature="0"
       id="path212"
       style="fill:none;stroke:#124f2f;stroke-width:0.96059602;stroke-linecap:butt;stroke-linejoin:miter;stroke-miterlimit:4;stroke-opacity:1;stroke-dasharray:none"
       d="m 400.79769,113.56816 c -2.735,2.91401 -6.618,4.73501 -10.922,4.73501 -4.309,0 -8.196,-1.821 -10.926,-4.73501 -2.516,-2.683 -6.012,-2.17499 -9.914,-2.078 l 0.242,-0.008 c -3.808,-0.10901 -7.211,-0.54301 -9.676,2.08599 -2.73,2.91401 -6.617,4.73501 -10.925,4.73501 l -0.207,0 c -4.309,0 -8.192,-1.821 -10.926,-4.73501 -2.516,-2.683 -6.012,-2.17499 -9.914,-2.078 l 0.242,-0.008 c -3.809,-0.10901 -7.211,-0.54301 -9.676,2.08599 -2.73,2.91401 -6.613,4.73501 -10.926,4.73501 -4.308,0 -8.191,-1.821 -10.925,-4.73501 -2.516,-2.683 -6.008,-2.17499 -9.915,-2.078 l 0.243,-0.008 c -3.805,-0.10901 -7.207,-0.54301 -9.672,2.08599 -2.735,2.91401 -6.617,4.73501 -10.93,4.73501 l -0.207,0 c -4.308,0 -8.191,-1.821 -10.926,-4.73501 -2.515,-2.683 -6.008,-2.17499 -9.914,-2.078 l 0.242,-0.008 c -3.804,-0.10901 -7.207,-0.54301 -9.671,2.08599 -2.735,2.91401 -6.618,4.73501 -10.926,4.73501 -4.309,0 -8.192,-1.821 -10.926,-4.73501" /><path
       inkscape:connector-curvature="0"
       id="path214"
       style="fill:none;stroke:#124f2f;stroke-width:0.96059602;stroke-linecap:butt;stroke-linejoin:miter;stroke-miterlimit:4;stroke-opacity:1;stroke-dasharray:none"
       d="m 262.25469,174.41616 -33.231,-49.609" /><path
       inkscape:connector-curvature="0"
       id="path216"
       style="fill:#124f2f;fill-opacity:1;fill-rule:nonzero;stroke:none"
       d="m 229.98469,126.24017 4.047,-0.17601 0,-0.144 -5.004,-3.441 c -1.453,-1.391 -2.906,-2.786 -4.359,-4.17599 0.734,1.87499 1.469,3.74599 2.203,5.62099 l 1.277,5.937 0.114,0.067 1.722,-3.688" /><text
       xml:space="preserve"
       style="font-size:16px;font-style:normal;font-variant:normal;font-weight:normal;font-stretch:normal;line-height:125%;letter-spacing:0px;word-spacing:0px;fill:#000000;fill-opacity:1;stroke:none;font-family:Times New Roman;-inkscape-font-specification:Times New Roman"
       x="266.56787"
       y="-175.37682"
       id="text4163"
       sodipodi:linespacing="125%"
       transform="scale(1,-1)"><tspan
         sodipodi:role="line"
         id="tspan4165"
         x="266.56787"
         y="-175.37682"
         style="font-size:14.4px">Mylar</tspan></text>
<text
       xml:space="preserve"
       style="font-size:12.80000019px;font-style:normal;font-weight:normal;line-height:125%;letter-spacing:0px;word-spacing:0px;fill:#000000;fill-opacity:1;stroke:none;font-family:CM Sans;-inkscape-font-specification:CM Sans"
       x="103.92899"
       y="-46.034683"
       id="text3210"
       sodipodi:linespacing="125%"
       transform="matrix(0.50441938,0.86345879,0.86345879,-0.50441938,0,0)"><tspan
         sodipodi:role="line"
         id="tspan3212"
         x="103.92899"
         y="-46.034683"
         style="font-size:11.19999981px;font-family:Nimbus Roman No9 L;-inkscape-font-specification:Nimbus Roman No9 L">Connectors</tspan></text>
<text
       xml:space="preserve"
       style="font-size:12.80000019px;font-style:normal;font-weight:normal;line-height:125%;letter-spacing:0px;word-spacing:0px;fill:#000000;fill-opacity:1;stroke:none;font-family:CM Sans;-inkscape-font-specification:CM Sans"
       x="-60.572617"
       y="-206.27449"
       id="text3210-8"
       sodipodi:linespacing="125%"
       transform="matrix(0.49556757,-0.86856939,-0.86856939,-0.49556757,0,0)"><tspan
         sodipodi:role="line"
         id="tspan3212-8"
         x="-60.572617"
         y="-206.27449"
         style="font-size:11.20000076px;font-family:Nimbus Roman No9 L;-inkscape-font-specification:Nimbus Roman No9 L">Connectors</tspan></text>
<text
       xml:space="preserve"
       style="font-size:12.80000019px;font-style:normal;font-weight:normal;line-height:125%;letter-spacing:0px;word-spacing:0px;fill:#000000;fill-opacity:1;stroke:none;font-family:CM Sans;-inkscape-font-specification:CM Sans"
       x="68.3414"
       y="-7.884511"
       id="text3210-4"
       sodipodi:linespacing="125%"
       transform="matrix(0.99998694,-0.00511059,-0.00511059,-0.99998694,0,0)"><tspan
         sodipodi:role="line"
         id="tspan3212-1"
         x="68.3414"
         y="-7.884511"
         style="font-size:11.19999981px;font-family:Nimbus Roman No9 L;-inkscape-font-specification:Nimbus Roman No9 L">Connectors</tspan></text>
</g></svg>